<?xml version="1.0" encoding="UTF-8"?>
<svg id="_レイヤー_1" data-name="レイヤー_1" xmlns="http://www.w3.org/2000/svg" version="1.1" viewBox="0 0 684.5 105.7">
  <!-- Generator: Adobe Illustrator 29.7.1, SVG Export Plug-In . SVG Version: 2.1.1 Build 8)  -->
  <path d="M40.9,2.2c11.3,0,20.2,2.1,26.6,6.6,6.4,4.6,10.6,12,10.6,22.3,0,22.7-19.4,31.9-34.5,32-1.7,0-3.3-.2-4.3-.3l-10.4-2.7v23.7c0,13.1,1.1,13.4,15.3,14.9v4.6H0v-4.6c13.1-1.4,13.9-2.2,13.9-15.2V22.2c0-13.7-1.7-14.2-13.9-15.4V2.2h40.9ZM28.9,54.4c1.9.9,5.9,1.9,10.8,1.9,9.8,0,22.5-5.1,22.5-24.9S51.3,7.7,38.8,7.7s-7.3.8-8.2,1.8c-1.2,1.1-1.7,2.9-1.7,6.7v38.2Z"/>
  <path d="M239,104.5c-1.8,0-3.6-.1-5.6-.3-12.9-.8-18.9-4-25.3-13.1-5.8-8-11.2-17.8-16.3-26-3-4.8-5-5.8-12.4-5.8h-5s0,24.1,0,24.1c0,13.1,1.7,14,14,15.2v4.6h-42.6v-4.6c12.7-1.4,13.9-2.1,13.9-15.2V21.9c0-13.1-1.7-13.8-13.9-15.1V2.2h40.7c11.8,0,19.5,1.4,25.5,5.4,6.4,4.1,10.6,11,10.6,20.6,0,13.5-8.7,21.7-20,26.5,2.7,4.8,9.3,15.2,14,22.2,5.7,8.3,8.7,12.3,12.2,16.1,4.1,4.4,7.3,6.1,11.1,7.1l-.7,4.5ZM181.2,53.9c7.8,0,13-1.2,16.8-4.4,5.9-4.5,8.3-10.7,8.3-19,0-16.6-10.8-22.7-22.2-22.7s-7,.6-8.1,1.6c-1.3,1.1-1.8,2.7-1.8,6.6v38h6.9Z"/>
  <path d="M308.1,103.3v-4.6c12.6-1.3,13.9-2,13.9-15.2V22.2c0-13.3-1.3-14.1-13.9-15.4V2.2h42.9v4.6c-12.7,1.3-14,2.1-14,15.4v61.3c0,13.3,1.3,13.9,14,15.2v4.6h-42.9Z"/>
  <path d="M476.9,26.2c-2.7-10.2-7.1-20.6-21.7-20.6s-16.1,8.4-16.1,16.6,6.7,15.7,19.7,22.5c18.3,9.4,26.9,16.7,26.9,31.6s-14.4,29.3-34.8,29.3-17.7-2.6-24.2-5.1c-1.2-4.2-3.2-15.8-4.3-24l5-1.3c3.1,10.3,10.3,24.5,26.3,24.5s17.5-7.4,17.5-17.5-6.2-16.4-19.8-23.7c-16.3-8.8-25.7-16.4-25.7-31.2S437.5,0,458.5,0s17.6,2.3,20.9,2.9c.6,5.6,1.3,12.2,2.6,22.3l-5,1Z"/>
  <path d="M642,103.3v-4.6c12.6-1.2,13.1-2.2,13-18.4V17.4c-12.4,28.2-31.4,70-37.9,86h-4.2c-6.2-16.2-22.6-56.5-34.3-84.5-2.5,53.5-2.7,65.3-2.7,68.7.2,8.7,3.9,10.1,14.7,11.2v4.6h-37.2v-4.6c9-.9,12.8-2.7,14-11.3.9-6.5,1.1-12.6,5.1-68.5.6-8-.9-10.9-14.5-12.2V2.2h28.3l33.6,77.1L655.5,2.2h28.2v4.6c-13.2,1.5-14.9,2.9-14.6,14l.7,59.5c.5,16.2,1,16.9,14.5,18.4v4.6h-42.5Z"/>
</svg>